<svg width="347" height="176" viewBox="0 0 347 176" fill="none" xmlns="http://www.w3.org/2000/svg">
<g clip-path="url(#clip0_46_65)">
<path d="M90.9054 132.094H111.013V165.692C106.414 169.014 101.137 171.565 95.1564 173.335C89.1842 175.115 83.2032 176 77.2309 176C68.8072 176 61.2179 174.203 54.4807 170.609C47.7434 167.015 42.4579 162.019 38.6242 155.603C34.7904 149.195 32.8779 141.938 32.8779 133.821C32.8779 125.704 34.7991 118.455 38.6242 112.039C42.4579 105.632 47.7782 100.627 54.5937 97.0327C61.4092 93.4389 69.1114 91.6508 77.6917 91.6508C85.194 91.6508 91.9399 92.9217 97.9122 95.4725C103.884 98.0232 108.866 101.687 112.847 106.482L98.3729 119.691C92.9309 113.669 86.4197 110.654 78.8392 110.654C71.9454 110.654 66.3904 112.758 62.1742 116.965C57.958 121.173 55.8542 126.791 55.8542 133.821C55.8542 138.3 56.8105 142.297 58.7317 145.812C60.6442 149.327 63.3304 152.071 66.7729 154.034C70.2155 156.006 74.1622 156.988 78.6045 156.988C83.0467 156.988 87.0717 156.103 90.8967 154.323V132.085L90.9054 132.094Z" fill="#7B1B1C"/>
<path d="M134.737 166.156C128.113 159.591 124.792 150.282 124.792 138.239V93.2899H147.542V137.546C147.542 150.519 152.636 157.005 162.825 157.005C173.013 157.005 177.994 150.519 177.994 137.546V93.2899H200.397V138.239C200.397 150.282 197.085 159.591 190.461 166.156C183.836 172.722 174.543 176 162.599 176C150.654 176 141.361 172.713 134.737 166.156Z" fill="#7B1B1C"/>
<path d="M215.793 93.2899H238.543V156.19H276.915V174.378H215.793V93.2899Z" fill="#7B1B1C"/>
<path d="M285.886 93.2899H308.628V156.19H347V174.378H285.886V93.2899Z" fill="#7B1B1C"/>
<path d="M14.935 81.9047C8.80627 80.2831 3.82503 78.118 0 75.4183L7.46751 58.5011C11.0665 60.8941 15.2393 62.8312 19.9945 64.295C24.741 65.7589 29.418 66.4951 34.008 66.4951C42.736 66.4951 47.1088 64.295 47.1088 59.8948C47.1088 57.5808 45.8656 55.8627 43.3707 54.7408C40.8844 53.6188 36.8855 52.4442 31.3653 51.2083C25.3148 49.8935 20.2553 48.4911 16.1955 46.9834C12.1358 45.4758 8.64979 43.0653 5.73755 39.7432C2.82531 36.4211 1.37353 31.942 1.37353 26.3059C1.37353 21.3622 2.7123 16.9094 5.39851 12.9212C8.07604 8.95045 12.0836 5.79491 17.4039 3.48085C22.7242 1.1668 29.2615 0.00976562 36.9985 0.00976562C42.284 0.00976562 47.4913 0.605811 52.6203 1.80667C57.7493 3.00752 62.2698 4.7606 66.1818 7.07466L59.175 24.1058C51.5162 19.9335 44.0835 17.8473 36.8855 17.8473C32.365 17.8473 29.0702 18.5222 27.0013 19.8721C24.9323 21.222 23.8978 22.9838 23.8978 25.1401C23.8978 27.2964 25.1235 28.9267 27.575 30.0049C30.0265 31.083 33.9732 32.205 39.4152 33.362C45.544 34.6768 50.6121 36.0881 54.6371 37.5869C58.6534 39.0946 62.1394 41.4875 65.0951 44.7658C68.0421 48.0528 69.52 52.5144 69.52 58.1505C69.52 63.0153 68.1812 67.4155 65.5037 71.3599C62.8175 75.2956 58.8012 78.4424 53.4374 80.8002C48.0737 83.1581 41.5625 84.3327 33.9037 84.3327C27.3925 84.3327 21.0725 83.5175 14.9437 81.8959" fill="#7B1B1C"/>
<path d="M145.734 64.9865V82.7188H81.1602V1.62158H144.238V19.3452H103.684V33.0104H139.414V50.1642H103.684V64.9865H145.734Z" fill="#7B1B1C"/>
<path d="M158.156 1.62158V82.7188H238.586V1.62158H158.156ZM215.619 72.4546L210.898 60.6915H185.497L180.776 72.4546H163.433L181.254 31.7482L182.506 28.8819L195.885 39.1286L186.983 48.1044H208.882L224.086 57.6674L213.984 45.4397H200.892L208.882 37.0951L184.393 24.5693L189.948 11.8771H206.682L214.393 29.4429L217.079 35.5524L233.284 72.4546H215.601H215.619Z" fill="#003859"/>
</g>
<defs>
<clipPath id="clip0_46_65">
<rect width="347" height="176" fill="white"/>
</clipPath>
</defs>
</svg>
